<svg xmlns="http://www.w3.org/2000/svg" viewBox="0 0 64 64" fill="none">
  <rect width="64" height="64" rx="12" fill="#6366F1"/>
  <path d="M20 26c0-1.1.9-2 2-2h2a2 2 0 012 2v2a2 2 0 01-2 2h-2a2 2 0 01-2-2v-2z" fill="#fff"/>
  <path d="M36 26c0-1.1.9-2 2-2h2a2 2 0 012 2v2a2 2 0 01-2 2h-2a2 2 0 01-2-2v-2z" fill="#fff"/>
  <path d="M18 38c3 6 10 8 14 8s11-2 14-8" stroke="#fff" stroke-width="2.5" stroke-linecap="round"/>
  <path d="M44 18c2 0 4 2 4 4v6c0 2-2 4-4 4" stroke="#fff" stroke-width="2" stroke-linecap="round"/>
  <path d="M20 18c-2 0-4 2-4 4v6c0 2 2 4 4 4" stroke="#fff" stroke-width="2" stroke-linecap="round"/>
</svg>
